<?xml version="1.0" encoding="UTF-8" standalone="no"?>
<!DOCTYPE svg PUBLIC "-//W3C//DTD SVG 1.1//EN"
 "http://www.w3.org/Graphics/SVG/1.1/DTD/svg11.dtd">
<!-- Generated by graphviz version 14.1.2 (0)
 -->
<!-- Title: custom_dag Pages: 1 -->
<svg width="940pt" height="133pt"
 viewBox="0.00 0.00 940.00 133.00" xmlns="http://www.w3.org/2000/svg" xmlns:xlink="http://www.w3.org/1999/xlink">
<g id="graph0" class="graph" transform="scale(1 1) rotate(0) translate(14.4 118.4)">
<title>custom_dag</title>
<polygon fill="white" stroke="none" points="-14.4,14.4 -14.4,-118.4 925.42,-118.4 925.42,14.4 -14.4,14.4"/>
<!-- task_1 -->
<g id="node1" class="node">
<title>task_1</title>
<path fill="#e8f1ff" stroke="#5279b8" stroke-width="1.2" d="M42,-70C42,-70 12,-70 12,-70 6,-70 0,-64 0,-58 0,-58 0,-46 0,-46 0,-40 6,-34 12,-34 12,-34 42,-34 42,-34 48,-34 54,-40 54,-46 54,-46 54,-58 54,-58 54,-64 48,-70 42,-70"/>
<text xml:space="preserve" text-anchor="middle" x="27" y="-55.25" font-family="Helvetica,sans-Serif" font-size="10.00">task_1</text>
<text xml:space="preserve" text-anchor="middle" x="27" y="-42.5" font-family="Helvetica,sans-Serif" font-size="10.00">math</text>
</g>
<!-- task_2 -->
<g id="node2" class="node">
<title>task_2</title>
<path fill="#e8f1ff" stroke="#5279b8" stroke-width="1.2" d="M143,-104C143,-104 113,-104 113,-104 107,-104 101,-98 101,-92 101,-92 101,-80 101,-80 101,-74 107,-68 113,-68 113,-68 143,-68 143,-68 149,-68 155,-74 155,-80 155,-80 155,-92 155,-92 155,-98 149,-104 143,-104"/>
<text xml:space="preserve" text-anchor="middle" x="128" y="-89.25" font-family="Helvetica,sans-Serif" font-size="10.00">task_2</text>
<text xml:space="preserve" text-anchor="middle" x="128" y="-76.5" font-family="Helvetica,sans-Serif" font-size="10.00">math</text>
</g>
<!-- task_1&#45;&gt;task_2 -->
<g id="edge1" class="edge">
<title>task_1&#45;&gt;task_2</title>
<path fill="none" stroke="#555555" d="M54.53,-61.11C66.28,-65.15 80.24,-69.94 92.76,-74.24"/>
<polygon fill="#555555" stroke="#555555" points="91.89,-76.53 99.31,-76.49 93.48,-71.9 91.89,-76.53"/>
</g>
<!-- task_3 -->
<g id="node3" class="node">
<title>task_3</title>
<path fill="#e8f1ff" stroke="#5279b8" stroke-width="1.2" d="M143,-36C143,-36 113,-36 113,-36 107,-36 101,-30 101,-24 101,-24 101,-12 101,-12 101,-6 107,0 113,0 113,0 143,0 143,0 149,0 155,-6 155,-12 155,-12 155,-24 155,-24 155,-30 149,-36 143,-36"/>
<text xml:space="preserve" text-anchor="middle" x="128" y="-21.25" font-family="Helvetica,sans-Serif" font-size="10.00">task_3</text>
<text xml:space="preserve" text-anchor="middle" x="128" y="-8.5" font-family="Helvetica,sans-Serif" font-size="10.00">math</text>
</g>
<!-- task_1&#45;&gt;task_3 -->
<g id="edge2" class="edge">
<title>task_1&#45;&gt;task_3</title>
<path fill="none" stroke="#555555" d="M54.53,-42.89C66.28,-38.85 80.24,-34.06 92.76,-29.76"/>
<polygon fill="#555555" stroke="#555555" points="93.48,-32.1 99.31,-27.51 91.89,-27.47 93.48,-32.1"/>
</g>
<!-- task_4 -->
<g id="node4" class="node">
<title>task_4</title>
<path fill="#e8f1ff" stroke="#5279b8" stroke-width="1.2" d="M244,-104C244,-104 214,-104 214,-104 208,-104 202,-98 202,-92 202,-92 202,-80 202,-80 202,-74 208,-68 214,-68 214,-68 244,-68 244,-68 250,-68 256,-74 256,-80 256,-80 256,-92 256,-92 256,-98 250,-104 244,-104"/>
<text xml:space="preserve" text-anchor="middle" x="229" y="-89.25" font-family="Helvetica,sans-Serif" font-size="10.00">task_4</text>
<text xml:space="preserve" text-anchor="middle" x="229" y="-76.5" font-family="Helvetica,sans-Serif" font-size="10.00">math</text>
</g>
<!-- task_2&#45;&gt;task_4 -->
<g id="edge3" class="edge">
<title>task_2&#45;&gt;task_4</title>
<path fill="none" stroke="#555555" d="M155.53,-86C167.16,-86 180.97,-86 193.4,-86"/>
<polygon fill="#555555" stroke="#555555" points="193.23,-88.45 200.23,-86 193.23,-83.55 193.23,-88.45"/>
</g>
<!-- task_5 -->
<g id="node5" class="node">
<title>task_5</title>
<path fill="#e8f1ff" stroke="#5279b8" stroke-width="1.2" d="M244,-36C244,-36 214,-36 214,-36 208,-36 202,-30 202,-24 202,-24 202,-12 202,-12 202,-6 208,0 214,0 214,0 244,0 244,0 250,0 256,-6 256,-12 256,-12 256,-24 256,-24 256,-30 250,-36 244,-36"/>
<text xml:space="preserve" text-anchor="middle" x="229" y="-21.25" font-family="Helvetica,sans-Serif" font-size="10.00">task_5</text>
<text xml:space="preserve" text-anchor="middle" x="229" y="-8.5" font-family="Helvetica,sans-Serif" font-size="10.00">math</text>
</g>
<!-- task_3&#45;&gt;task_5 -->
<g id="edge4" class="edge">
<title>task_3&#45;&gt;task_5</title>
<path fill="none" stroke="#555555" d="M155.53,-18C167.16,-18 180.97,-18 193.4,-18"/>
<polygon fill="#555555" stroke="#555555" points="193.23,-20.45 200.23,-18 193.23,-15.55 193.23,-20.45"/>
</g>
<!-- task_6 -->
<g id="node6" class="node">
<title>task_6</title>
<path fill="#e8f1ff" stroke="#5279b8" stroke-width="1.2" d="M345,-37C345,-37 315,-37 315,-37 309,-37 303,-31 303,-25 303,-25 303,-13 303,-13 303,-7 309,-1 315,-1 315,-1 345,-1 345,-1 351,-1 357,-7 357,-13 357,-13 357,-25 357,-25 357,-31 351,-37 345,-37"/>
<text xml:space="preserve" text-anchor="middle" x="330" y="-22.25" font-family="Helvetica,sans-Serif" font-size="10.00">task_6</text>
<text xml:space="preserve" text-anchor="middle" x="330" y="-9.5" font-family="Helvetica,sans-Serif" font-size="10.00">math</text>
</g>
<!-- task_4&#45;&gt;task_6 -->
<g id="edge5" class="edge">
<title>task_4&#45;&gt;task_6</title>
<path fill="none" stroke="#555555" d="M256.53,-68.05C268.61,-59.87 283.04,-50.1 295.83,-41.45"/>
<polygon fill="#555555" stroke="#555555" points="297.06,-43.57 301.49,-37.62 294.32,-39.51 297.06,-43.57"/>
</g>
<!-- task_10 -->
<g id="node10" class="node">
<title>task_10</title>
<path fill="#e8f1ff" stroke="#5279b8" stroke-width="1.2" d="M749,-70C749,-70 719,-70 719,-70 713,-70 707,-64 707,-58 707,-58 707,-46 707,-46 707,-40 713,-34 719,-34 719,-34 749,-34 749,-34 755,-34 761,-40 761,-46 761,-46 761,-58 761,-58 761,-64 755,-70 749,-70"/>
<text xml:space="preserve" text-anchor="middle" x="734" y="-55.25" font-family="Helvetica,sans-Serif" font-size="10.00">task_10</text>
<text xml:space="preserve" text-anchor="middle" x="734" y="-42.5" font-family="Helvetica,sans-Serif" font-size="10.00">math</text>
</g>
<!-- task_4&#45;&gt;task_10 -->
<g id="edge6" class="edge">
<title>task_4&#45;&gt;task_10</title>
<path fill="none" stroke="#555555" d="M256.53,-86C294.83,-86 367.85,-86 430,-86 430,-86 430,-86 533,-86 591.86,-86 659.1,-71.51 698.7,-61.45"/>
<polygon fill="#555555" stroke="#555555" points="699.08,-63.88 705.25,-59.76 697.86,-59.14 699.08,-63.88"/>
</g>
<!-- task_5&#45;&gt;task_6 -->
<g id="edge7" class="edge">
<title>task_5&#45;&gt;task_6</title>
<path fill="none" stroke="#555555" d="M256.53,-18.27C268.16,-18.39 281.97,-18.52 294.4,-18.65"/>
<polygon fill="#555555" stroke="#555555" points="294.2,-21.1 301.23,-18.72 294.25,-16.2 294.2,-21.1"/>
</g>
<!-- task_7 -->
<g id="node7" class="node">
<title>task_7</title>
<path fill="#e8f1ff" stroke="#5279b8" stroke-width="1.2" d="M446,-37C446,-37 416,-37 416,-37 410,-37 404,-31 404,-25 404,-25 404,-13 404,-13 404,-7 410,-1 416,-1 416,-1 446,-1 446,-1 452,-1 458,-7 458,-13 458,-13 458,-25 458,-25 458,-31 452,-37 446,-37"/>
<text xml:space="preserve" text-anchor="middle" x="431" y="-22.25" font-family="Helvetica,sans-Serif" font-size="10.00">task_7</text>
<text xml:space="preserve" text-anchor="middle" x="431" y="-9.5" font-family="Helvetica,sans-Serif" font-size="10.00">math</text>
</g>
<!-- task_6&#45;&gt;task_7 -->
<g id="edge8" class="edge">
<title>task_6&#45;&gt;task_7</title>
<path fill="none" stroke="#555555" d="M357.53,-19C369.16,-19 382.97,-19 395.4,-19"/>
<polygon fill="#555555" stroke="#555555" points="395.23,-21.45 402.23,-19 395.23,-16.55 395.23,-21.45"/>
</g>
<!-- task_8 -->
<g id="node8" class="node">
<title>task_8</title>
<path fill="#e8f1ff" stroke="#5279b8" stroke-width="1.2" d="M547,-37C547,-37 517,-37 517,-37 511,-37 505,-31 505,-25 505,-25 505,-13 505,-13 505,-7 511,-1 517,-1 517,-1 547,-1 547,-1 553,-1 559,-7 559,-13 559,-13 559,-25 559,-25 559,-31 553,-37 547,-37"/>
<text xml:space="preserve" text-anchor="middle" x="532" y="-22.25" font-family="Helvetica,sans-Serif" font-size="10.00">task_8</text>
<text xml:space="preserve" text-anchor="middle" x="532" y="-9.5" font-family="Helvetica,sans-Serif" font-size="10.00">math</text>
</g>
<!-- task_7&#45;&gt;task_8 -->
<g id="edge9" class="edge">
<title>task_7&#45;&gt;task_8</title>
<path fill="none" stroke="#555555" d="M458.53,-19C470.16,-19 483.97,-19 496.4,-19"/>
<polygon fill="#555555" stroke="#555555" points="496.23,-21.45 503.23,-19 496.23,-16.55 496.23,-21.45"/>
</g>
<!-- task_9 -->
<g id="node9" class="node">
<title>task_9</title>
<path fill="#e8f1ff" stroke="#5279b8" stroke-width="1.2" d="M648,-37C648,-37 618,-37 618,-37 612,-37 606,-31 606,-25 606,-25 606,-13 606,-13 606,-7 612,-1 618,-1 618,-1 648,-1 648,-1 654,-1 660,-7 660,-13 660,-13 660,-25 660,-25 660,-31 654,-37 648,-37"/>
<text xml:space="preserve" text-anchor="middle" x="633" y="-22.25" font-family="Helvetica,sans-Serif" font-size="10.00">task_9</text>
<text xml:space="preserve" text-anchor="middle" x="633" y="-9.5" font-family="Helvetica,sans-Serif" font-size="10.00">math</text>
</g>
<!-- task_8&#45;&gt;task_9 -->
<g id="edge10" class="edge">
<title>task_8&#45;&gt;task_9</title>
<path fill="none" stroke="#555555" d="M559.53,-19C571.16,-19 584.97,-19 597.4,-19"/>
<polygon fill="#555555" stroke="#555555" points="597.23,-21.45 604.23,-19 597.23,-16.55 597.23,-21.45"/>
</g>
<!-- task_9&#45;&gt;task_10 -->
<g id="edge11" class="edge">
<title>task_9&#45;&gt;task_10</title>
<path fill="none" stroke="#555555" d="M660.53,-27.84C672.28,-31.76 686.24,-36.41 698.76,-40.59"/>
<polygon fill="#555555" stroke="#555555" points="697.89,-42.88 705.3,-42.77 699.44,-38.23 697.89,-42.88"/>
</g>
<!-- task_11 -->
<g id="node11" class="node">
<title>task_11</title>
<path fill="#fff2b8" stroke="#c48a00" stroke-width="2" d="M899.02,-75.44C899.02,-75.44 820,-75.44 820,-75.44 814,-75.44 808,-69.44 808,-63.44 808,-63.44 808,-40.55 808,-40.55 808,-34.55 814,-28.55 820,-28.55 820,-28.55 899.02,-28.55 899.02,-28.55 905.02,-28.55 911.02,-34.55 911.02,-40.55 911.02,-40.55 911.02,-63.44 911.02,-63.44 911.02,-69.44 905.02,-75.44 899.02,-75.44"/>
<text xml:space="preserve" text-anchor="middle" x="859.51" y="-61.62" font-family="Helvetica,sans-Serif" font-size="10.00">task_11</text>
<text xml:space="preserve" text-anchor="middle" x="859.51" y="-48.88" font-family="Helvetica,sans-Serif" font-size="10.00">math</text>
<text xml:space="preserve" text-anchor="middle" x="859.51" y="-36.12" font-family="Helvetica,sans-Serif" font-size="10.00">native_task_id=34</text>
</g>
<!-- task_10&#45;&gt;task_11 -->
<g id="edge12" class="edge">
<title>task_10&#45;&gt;task_11</title>
<path fill="none" stroke="#555555" d="M761.5,-52C772.53,-52 785.83,-52 798.98,-52"/>
<polygon fill="#555555" stroke="#555555" points="798.63,-54.45 805.63,-52 798.63,-49.55 798.63,-54.45"/>
</g>
</g>
</svg>
