<?xml version="1.0" encoding="UTF-8" standalone="no"?>
<!DOCTYPE svg PUBLIC "-//W3C//DTD SVG 1.1//EN"
 "http://www.w3.org/Graphics/SVG/1.1/DTD/svg11.dtd">
<!-- Generated by graphviz version 2.43.0 (0)
 -->
<!-- Title: custom_dag Pages: 1 -->
<svg width="739pt" height="269pt"
 viewBox="0.00 0.00 738.80 268.80" xmlns="http://www.w3.org/2000/svg" xmlns:xlink="http://www.w3.org/1999/xlink">
<g id="graph0" class="graph" transform="scale(1 1) rotate(0) translate(14.4 254.4)">
<title>custom_dag</title>
<polygon fill="white" stroke="transparent" points="-14.4,14.4 -14.4,-254.4 724.4,-254.4 724.4,14.4 -14.4,14.4"/>
<!-- task_1 -->
<g id="node1" class="node">
<title>task_1</title>
<path fill="#e8f1ff" stroke="#5279b8" stroke-width="1.2" d="M42,-240C42,-240 12,-240 12,-240 6,-240 0,-234 0,-228 0,-228 0,-216 0,-216 0,-210 6,-204 12,-204 12,-204 42,-204 42,-204 48,-204 54,-210 54,-216 54,-216 54,-228 54,-228 54,-234 48,-240 42,-240"/>
<text text-anchor="middle" x="27" y="-225" font-family="Helvetica,sans-Serif" font-size="10.00">task_1</text>
<text text-anchor="middle" x="27" y="-214" font-family="Helvetica,sans-Serif" font-size="10.00">python</text>
</g>
<!-- task_5 -->
<g id="node5" class="node">
<title>task_5</title>
<path fill="#e8f1ff" stroke="#5279b8" stroke-width="1.2" d="M143,-172C143,-172 113,-172 113,-172 107,-172 101,-166 101,-160 101,-160 101,-148 101,-148 101,-142 107,-136 113,-136 113,-136 143,-136 143,-136 149,-136 155,-142 155,-148 155,-148 155,-160 155,-160 155,-166 149,-172 143,-172"/>
<text text-anchor="middle" x="128" y="-157" font-family="Helvetica,sans-Serif" font-size="10.00">task_5</text>
<text text-anchor="middle" x="128" y="-146" font-family="Helvetica,sans-Serif" font-size="10.00">python</text>
</g>
<!-- task_1&#45;&gt;task_5 -->
<g id="edge1" class="edge">
<title>task_1&#45;&gt;task_5</title>
<path fill="none" stroke="#555555" d="M54.01,-204.13C66.53,-195.53 81.66,-185.14 94.89,-176.06"/>
<polygon fill="#555555" stroke="#555555" points="96.44,-177.97 100.82,-171.98 93.66,-173.93 96.44,-177.97"/>
</g>
<!-- task_2 -->
<g id="node2" class="node">
<title>task_2</title>
<path fill="#e8f1ff" stroke="#5279b8" stroke-width="1.2" d="M42,-172C42,-172 12,-172 12,-172 6,-172 0,-166 0,-160 0,-160 0,-148 0,-148 0,-142 6,-136 12,-136 12,-136 42,-136 42,-136 48,-136 54,-142 54,-148 54,-148 54,-160 54,-160 54,-166 48,-172 42,-172"/>
<text text-anchor="middle" x="27" y="-157" font-family="Helvetica,sans-Serif" font-size="10.00">task_2</text>
<text text-anchor="middle" x="27" y="-146" font-family="Helvetica,sans-Serif" font-size="10.00">python</text>
</g>
<!-- task_2&#45;&gt;task_5 -->
<g id="edge2" class="edge">
<title>task_2&#45;&gt;task_5</title>
<path fill="none" stroke="#555555" d="M54.01,-154C66.19,-154 80.84,-154 93.81,-154"/>
<polygon fill="#555555" stroke="#555555" points="93.82,-156.45 100.82,-154 93.82,-151.55 93.82,-156.45"/>
</g>
<!-- task_3 -->
<g id="node3" class="node">
<title>task_3</title>
<path fill="#e8f1ff" stroke="#5279b8" stroke-width="1.2" d="M42,-104C42,-104 12,-104 12,-104 6,-104 0,-98 0,-92 0,-92 0,-80 0,-80 0,-74 6,-68 12,-68 12,-68 42,-68 42,-68 48,-68 54,-74 54,-80 54,-80 54,-92 54,-92 54,-98 48,-104 42,-104"/>
<text text-anchor="middle" x="27" y="-89" font-family="Helvetica,sans-Serif" font-size="10.00">task_3</text>
<text text-anchor="middle" x="27" y="-78" font-family="Helvetica,sans-Serif" font-size="10.00">python</text>
</g>
<!-- task_6 -->
<g id="node6" class="node">
<title>task_6</title>
<path fill="#e8f1ff" stroke="#5279b8" stroke-width="1.2" d="M143,-36C143,-36 113,-36 113,-36 107,-36 101,-30 101,-24 101,-24 101,-12 101,-12 101,-6 107,0 113,0 113,0 143,0 143,0 149,0 155,-6 155,-12 155,-12 155,-24 155,-24 155,-30 149,-36 143,-36"/>
<text text-anchor="middle" x="128" y="-21" font-family="Helvetica,sans-Serif" font-size="10.00">task_6</text>
<text text-anchor="middle" x="128" y="-10" font-family="Helvetica,sans-Serif" font-size="10.00">python</text>
</g>
<!-- task_3&#45;&gt;task_6 -->
<g id="edge3" class="edge">
<title>task_3&#45;&gt;task_6</title>
<path fill="none" stroke="#555555" d="M54.01,-68.13C66.53,-59.53 81.66,-49.14 94.89,-40.06"/>
<polygon fill="#555555" stroke="#555555" points="96.44,-41.97 100.82,-35.98 93.66,-37.93 96.44,-41.97"/>
</g>
<!-- task_4 -->
<g id="node4" class="node">
<title>task_4</title>
<path fill="#e8f1ff" stroke="#5279b8" stroke-width="1.2" d="M42,-36C42,-36 12,-36 12,-36 6,-36 0,-30 0,-24 0,-24 0,-12 0,-12 0,-6 6,0 12,0 12,0 42,0 42,0 48,0 54,-6 54,-12 54,-12 54,-24 54,-24 54,-30 48,-36 42,-36"/>
<text text-anchor="middle" x="27" y="-21" font-family="Helvetica,sans-Serif" font-size="10.00">task_4</text>
<text text-anchor="middle" x="27" y="-10" font-family="Helvetica,sans-Serif" font-size="10.00">python</text>
</g>
<!-- task_4&#45;&gt;task_6 -->
<g id="edge4" class="edge">
<title>task_4&#45;&gt;task_6</title>
<path fill="none" stroke="#555555" d="M54.01,-18C66.19,-18 80.84,-18 93.81,-18"/>
<polygon fill="#555555" stroke="#555555" points="93.82,-20.45 100.82,-18 93.82,-15.55 93.82,-20.45"/>
</g>
<!-- task_7 -->
<g id="node7" class="node">
<title>task_7</title>
<path fill="#e8f1ff" stroke="#5279b8" stroke-width="1.2" d="M244,-240C244,-240 214,-240 214,-240 208,-240 202,-234 202,-228 202,-228 202,-216 202,-216 202,-210 208,-204 214,-204 214,-204 244,-204 244,-204 250,-204 256,-210 256,-216 256,-216 256,-228 256,-228 256,-234 250,-240 244,-240"/>
<text text-anchor="middle" x="229" y="-225" font-family="Helvetica,sans-Serif" font-size="10.00">task_7</text>
<text text-anchor="middle" x="229" y="-214" font-family="Helvetica,sans-Serif" font-size="10.00">python</text>
</g>
<!-- task_5&#45;&gt;task_7 -->
<g id="edge5" class="edge">
<title>task_5&#45;&gt;task_7</title>
<path fill="none" stroke="#555555" d="M155.01,-171.87C167.53,-180.47 182.66,-190.86 195.89,-199.94"/>
<polygon fill="#555555" stroke="#555555" points="194.66,-202.07 201.82,-204.02 197.44,-198.03 194.66,-202.07"/>
</g>
<!-- task_8 -->
<g id="node8" class="node">
<title>task_8</title>
<path fill="#e8f1ff" stroke="#5279b8" stroke-width="1.2" d="M244,-172C244,-172 214,-172 214,-172 208,-172 202,-166 202,-160 202,-160 202,-148 202,-148 202,-142 208,-136 214,-136 214,-136 244,-136 244,-136 250,-136 256,-142 256,-148 256,-148 256,-160 256,-160 256,-166 250,-172 244,-172"/>
<text text-anchor="middle" x="229" y="-157" font-family="Helvetica,sans-Serif" font-size="10.00">task_8</text>
<text text-anchor="middle" x="229" y="-146" font-family="Helvetica,sans-Serif" font-size="10.00">python</text>
</g>
<!-- task_5&#45;&gt;task_8 -->
<g id="edge6" class="edge">
<title>task_5&#45;&gt;task_8</title>
<path fill="none" stroke="#555555" d="M155.01,-154C167.19,-154 181.84,-154 194.81,-154"/>
<polygon fill="#555555" stroke="#555555" points="194.82,-156.45 201.82,-154 194.82,-151.55 194.82,-156.45"/>
</g>
<!-- task_9 -->
<g id="node9" class="node">
<title>task_9</title>
<path fill="#e8f1ff" stroke="#5279b8" stroke-width="1.2" d="M244,-104C244,-104 214,-104 214,-104 208,-104 202,-98 202,-92 202,-92 202,-80 202,-80 202,-74 208,-68 214,-68 214,-68 244,-68 244,-68 250,-68 256,-74 256,-80 256,-80 256,-92 256,-92 256,-98 250,-104 244,-104"/>
<text text-anchor="middle" x="229" y="-89" font-family="Helvetica,sans-Serif" font-size="10.00">task_9</text>
<text text-anchor="middle" x="229" y="-78" font-family="Helvetica,sans-Serif" font-size="10.00">python</text>
</g>
<!-- task_6&#45;&gt;task_9 -->
<g id="edge7" class="edge">
<title>task_6&#45;&gt;task_9</title>
<path fill="none" stroke="#555555" d="M155.01,-35.87C167.53,-44.47 182.66,-54.86 195.89,-63.94"/>
<polygon fill="#555555" stroke="#555555" points="194.66,-66.07 201.82,-68.02 197.44,-62.03 194.66,-66.07"/>
</g>
<!-- task_10 -->
<g id="node10" class="node">
<title>task_10</title>
<path fill="#e8f1ff" stroke="#5279b8" stroke-width="1.2" d="M244,-36C244,-36 214,-36 214,-36 208,-36 202,-30 202,-24 202,-24 202,-12 202,-12 202,-6 208,0 214,0 214,0 244,0 244,0 250,0 256,-6 256,-12 256,-12 256,-24 256,-24 256,-30 250,-36 244,-36"/>
<text text-anchor="middle" x="229" y="-21" font-family="Helvetica,sans-Serif" font-size="10.00">task_10</text>
<text text-anchor="middle" x="229" y="-10" font-family="Helvetica,sans-Serif" font-size="10.00">python</text>
</g>
<!-- task_6&#45;&gt;task_10 -->
<g id="edge8" class="edge">
<title>task_6&#45;&gt;task_10</title>
<path fill="none" stroke="#555555" d="M155.01,-18C167.19,-18 181.84,-18 194.81,-18"/>
<polygon fill="#555555" stroke="#555555" points="194.82,-20.45 201.82,-18 194.82,-15.55 194.82,-20.45"/>
</g>
<!-- task_11 -->
<g id="node11" class="node">
<title>task_11</title>
<path fill="#e8f1ff" stroke="#5279b8" stroke-width="1.2" d="M345,-172C345,-172 315,-172 315,-172 309,-172 303,-166 303,-160 303,-160 303,-148 303,-148 303,-142 309,-136 315,-136 315,-136 345,-136 345,-136 351,-136 357,-142 357,-148 357,-148 357,-160 357,-160 357,-166 351,-172 345,-172"/>
<text text-anchor="middle" x="330" y="-157" font-family="Helvetica,sans-Serif" font-size="10.00">task_11</text>
<text text-anchor="middle" x="330" y="-146" font-family="Helvetica,sans-Serif" font-size="10.00">python</text>
</g>
<!-- task_7&#45;&gt;task_11 -->
<g id="edge9" class="edge">
<title>task_7&#45;&gt;task_11</title>
<path fill="none" stroke="#555555" d="M256.01,-204.13C268.53,-195.53 283.66,-185.14 296.89,-176.06"/>
<polygon fill="#555555" stroke="#555555" points="298.44,-177.97 302.82,-171.98 295.66,-173.93 298.44,-177.97"/>
</g>
<!-- task_8&#45;&gt;task_11 -->
<g id="edge10" class="edge">
<title>task_8&#45;&gt;task_11</title>
<path fill="none" stroke="#555555" d="M256.01,-154C268.19,-154 282.84,-154 295.81,-154"/>
<polygon fill="#555555" stroke="#555555" points="295.82,-156.45 302.82,-154 295.82,-151.55 295.82,-156.45"/>
</g>
<!-- task_12 -->
<g id="node12" class="node">
<title>task_12</title>
<path fill="#e8f1ff" stroke="#5279b8" stroke-width="1.2" d="M345,-104C345,-104 315,-104 315,-104 309,-104 303,-98 303,-92 303,-92 303,-80 303,-80 303,-74 309,-68 315,-68 315,-68 345,-68 345,-68 351,-68 357,-74 357,-80 357,-80 357,-92 357,-92 357,-98 351,-104 345,-104"/>
<text text-anchor="middle" x="330" y="-89" font-family="Helvetica,sans-Serif" font-size="10.00">task_12</text>
<text text-anchor="middle" x="330" y="-78" font-family="Helvetica,sans-Serif" font-size="10.00">python</text>
</g>
<!-- task_9&#45;&gt;task_12 -->
<g id="edge11" class="edge">
<title>task_9&#45;&gt;task_12</title>
<path fill="none" stroke="#555555" d="M256.01,-86C268.19,-86 282.84,-86 295.81,-86"/>
<polygon fill="#555555" stroke="#555555" points="295.82,-88.45 302.82,-86 295.82,-83.55 295.82,-88.45"/>
</g>
<!-- task_10&#45;&gt;task_12 -->
<g id="edge12" class="edge">
<title>task_10&#45;&gt;task_12</title>
<path fill="none" stroke="#555555" d="M256.01,-35.87C268.53,-44.47 283.66,-54.86 296.89,-63.94"/>
<polygon fill="#555555" stroke="#555555" points="295.66,-66.07 302.82,-68.02 298.44,-62.03 295.66,-66.07"/>
</g>
<!-- task_13 -->
<g id="node13" class="node">
<title>task_13</title>
<path fill="#e8f1ff" stroke="#5279b8" stroke-width="1.2" d="M446,-172C446,-172 416,-172 416,-172 410,-172 404,-166 404,-160 404,-160 404,-148 404,-148 404,-142 410,-136 416,-136 416,-136 446,-136 446,-136 452,-136 458,-142 458,-148 458,-148 458,-160 458,-160 458,-166 452,-172 446,-172"/>
<text text-anchor="middle" x="431" y="-157" font-family="Helvetica,sans-Serif" font-size="10.00">task_13</text>
<text text-anchor="middle" x="431" y="-146" font-family="Helvetica,sans-Serif" font-size="10.00">python</text>
</g>
<!-- task_11&#45;&gt;task_13 -->
<g id="edge13" class="edge">
<title>task_11&#45;&gt;task_13</title>
<path fill="none" stroke="#555555" d="M357.01,-154C369.19,-154 383.84,-154 396.81,-154"/>
<polygon fill="#555555" stroke="#555555" points="396.82,-156.45 403.82,-154 396.82,-151.55 396.82,-156.45"/>
</g>
<!-- task_14 -->
<g id="node14" class="node">
<title>task_14</title>
<path fill="#e8f1ff" stroke="#5279b8" stroke-width="1.2" d="M446,-104C446,-104 416,-104 416,-104 410,-104 404,-98 404,-92 404,-92 404,-80 404,-80 404,-74 410,-68 416,-68 416,-68 446,-68 446,-68 452,-68 458,-74 458,-80 458,-80 458,-92 458,-92 458,-98 452,-104 446,-104"/>
<text text-anchor="middle" x="431" y="-89" font-family="Helvetica,sans-Serif" font-size="10.00">task_14</text>
<text text-anchor="middle" x="431" y="-78" font-family="Helvetica,sans-Serif" font-size="10.00">python</text>
</g>
<!-- task_12&#45;&gt;task_14 -->
<g id="edge14" class="edge">
<title>task_12&#45;&gt;task_14</title>
<path fill="none" stroke="#555555" d="M357.01,-86C369.19,-86 383.84,-86 396.81,-86"/>
<polygon fill="#555555" stroke="#555555" points="396.82,-88.45 403.82,-86 396.82,-83.55 396.82,-88.45"/>
</g>
<!-- task_15 -->
<g id="node15" class="node">
<title>task_15</title>
<path fill="#e8f1ff" stroke="#5279b8" stroke-width="1.2" d="M547,-138C547,-138 517,-138 517,-138 511,-138 505,-132 505,-126 505,-126 505,-114 505,-114 505,-108 511,-102 517,-102 517,-102 547,-102 547,-102 553,-102 559,-108 559,-114 559,-114 559,-126 559,-126 559,-132 553,-138 547,-138"/>
<text text-anchor="middle" x="532" y="-123" font-family="Helvetica,sans-Serif" font-size="10.00">task_15</text>
<text text-anchor="middle" x="532" y="-112" font-family="Helvetica,sans-Serif" font-size="10.00">python</text>
</g>
<!-- task_13&#45;&gt;task_15 -->
<g id="edge15" class="edge">
<title>task_13&#45;&gt;task_15</title>
<path fill="none" stroke="#555555" d="M458.01,-145.07C470.3,-140.84 485.12,-135.76 498.17,-131.27"/>
<polygon fill="#555555" stroke="#555555" points="498.99,-133.58 504.82,-128.99 497.4,-128.95 498.99,-133.58"/>
</g>
<!-- task_14&#45;&gt;task_15 -->
<g id="edge16" class="edge">
<title>task_14&#45;&gt;task_15</title>
<path fill="none" stroke="#555555" d="M458.01,-94.93C470.3,-99.16 485.12,-104.24 498.17,-108.73"/>
<polygon fill="#555555" stroke="#555555" points="497.4,-111.05 504.82,-111.01 498.99,-106.42 497.4,-111.05"/>
</g>
<!-- task_16 -->
<g id="node16" class="node">
<title>task_16</title>
<path fill="#fff2b8" stroke="#c48a00" stroke-width="2" d="M698,-140.5C698,-140.5 618,-140.5 618,-140.5 612,-140.5 606,-134.5 606,-128.5 606,-128.5 606,-111.5 606,-111.5 606,-105.5 612,-99.5 618,-99.5 618,-99.5 698,-99.5 698,-99.5 704,-99.5 710,-105.5 710,-111.5 710,-111.5 710,-128.5 710,-128.5 710,-134.5 704,-140.5 698,-140.5"/>
<text text-anchor="middle" x="658" y="-128.5" font-family="Helvetica,sans-Serif" font-size="10.00">task_16</text>
<text text-anchor="middle" x="658" y="-117.5" font-family="Helvetica,sans-Serif" font-size="10.00">python</text>
<text text-anchor="middle" x="658" y="-106.5" font-family="Helvetica,sans-Serif" font-size="10.00">native_task_id=23</text>
</g>
<!-- task_15&#45;&gt;task_16 -->
<g id="edge17" class="edge">
<title>task_15&#45;&gt;task_16</title>
<path fill="none" stroke="#555555" d="M559.3,-120C570.86,-120 584.94,-120 598.76,-120"/>
<polygon fill="#555555" stroke="#555555" points="598.95,-122.45 605.95,-120 598.95,-117.55 598.95,-122.45"/>
</g>
</g>
</svg>
