<?xml version="1.0" encoding="UTF-8" standalone="no"?>
<!DOCTYPE svg PUBLIC "-//W3C//DTD SVG 1.1//EN"
 "http://www.w3.org/Graphics/SVG/1.1/DTD/svg11.dtd">
<!-- Generated by graphviz version 14.1.2 (0)
 -->
<!-- Title: custom_dag Pages: 1 -->
<svg width="334pt" height="201pt"
 viewBox="0.00 0.00 334.00 201.00" xmlns="http://www.w3.org/2000/svg" xmlns:xlink="http://www.w3.org/1999/xlink">
<g id="graph0" class="graph" transform="scale(1 1) rotate(0) translate(14.4 186.4)">
<title>custom_dag</title>
<polygon fill="white" stroke="none" points="-14.4,14.4 -14.4,-186.4 319.42,-186.4 319.42,14.4 -14.4,14.4"/>
<!-- task_1 -->
<g id="node1" class="node">
<title>task_1</title>
<path fill="#e8f1ff" stroke="#5279b8" stroke-width="1.2" d="M42,-138C42,-138 12,-138 12,-138 6,-138 0,-132 0,-126 0,-126 0,-114 0,-114 0,-108 6,-102 12,-102 12,-102 42,-102 42,-102 48,-102 54,-108 54,-114 54,-114 54,-126 54,-126 54,-132 48,-138 42,-138"/>
<text xml:space="preserve" text-anchor="middle" x="27" y="-123.25" font-family="Helvetica,sans-Serif" font-size="10.00">task_1</text>
<text xml:space="preserve" text-anchor="middle" x="27" y="-110.5" font-family="Helvetica,sans-Serif" font-size="10.00">math</text>
</g>
<!-- task_2 -->
<g id="node3" class="node">
<title>task_2</title>
<path fill="#e8f1ff" stroke="#5279b8" stroke-width="1.2" d="M143,-172C143,-172 113,-172 113,-172 107,-172 101,-166 101,-160 101,-160 101,-148 101,-148 101,-142 107,-136 113,-136 113,-136 143,-136 143,-136 149,-136 155,-142 155,-148 155,-148 155,-160 155,-160 155,-166 149,-172 143,-172"/>
<text xml:space="preserve" text-anchor="middle" x="128" y="-157.25" font-family="Helvetica,sans-Serif" font-size="10.00">task_2</text>
<text xml:space="preserve" text-anchor="middle" x="128" y="-144.5" font-family="Helvetica,sans-Serif" font-size="10.00">math</text>
</g>
<!-- task_1&#45;&gt;task_2 -->
<g id="edge1" class="edge">
<title>task_1&#45;&gt;task_2</title>
<path fill="none" stroke="#555555" d="M54.53,-129.11C66.28,-133.15 80.24,-137.94 92.76,-142.24"/>
<polygon fill="#555555" stroke="#555555" points="91.89,-144.53 99.31,-144.49 93.48,-139.9 91.89,-144.53"/>
</g>
<!-- task_3 -->
<g id="node4" class="node">
<title>task_3</title>
<path fill="#e8f1ff" stroke="#5279b8" stroke-width="1.2" d="M143,-104C143,-104 113,-104 113,-104 107,-104 101,-98 101,-92 101,-92 101,-80 101,-80 101,-74 107,-68 113,-68 113,-68 143,-68 143,-68 149,-68 155,-74 155,-80 155,-80 155,-92 155,-92 155,-98 149,-104 143,-104"/>
<text xml:space="preserve" text-anchor="middle" x="128" y="-89.25" font-family="Helvetica,sans-Serif" font-size="10.00">task_3</text>
<text xml:space="preserve" text-anchor="middle" x="128" y="-76.5" font-family="Helvetica,sans-Serif" font-size="10.00">math</text>
</g>
<!-- task_1&#45;&gt;task_3 -->
<g id="edge2" class="edge">
<title>task_1&#45;&gt;task_3</title>
<path fill="none" stroke="#555555" d="M54.53,-110.89C66.28,-106.85 80.24,-102.06 92.76,-97.76"/>
<polygon fill="#555555" stroke="#555555" points="93.48,-100.1 99.31,-95.51 91.89,-95.47 93.48,-100.1"/>
</g>
<!-- task_4 -->
<g id="node2" class="node">
<title>task_4</title>
<path fill="#e8f1ff" stroke="#5279b8" stroke-width="1.2" d="M143,-36C143,-36 113,-36 113,-36 107,-36 101,-30 101,-24 101,-24 101,-12 101,-12 101,-6 107,0 113,0 113,0 143,0 143,0 149,0 155,-6 155,-12 155,-12 155,-24 155,-24 155,-30 149,-36 143,-36"/>
<text xml:space="preserve" text-anchor="middle" x="128" y="-21.25" font-family="Helvetica,sans-Serif" font-size="10.00">task_4</text>
<text xml:space="preserve" text-anchor="middle" x="128" y="-8.5" font-family="Helvetica,sans-Serif" font-size="10.00">math</text>
</g>
<!-- task_5 -->
<g id="node5" class="node">
<title>task_5</title>
<path fill="#fff2b8" stroke="#c48a00" stroke-width="2" d="M293.02,-109.44C293.02,-109.44 214,-109.44 214,-109.44 208,-109.44 202,-103.44 202,-97.44 202,-97.44 202,-74.56 202,-74.56 202,-68.56 208,-62.55 214,-62.55 214,-62.55 293.02,-62.55 293.02,-62.55 299.02,-62.55 305.02,-68.56 305.02,-74.56 305.02,-74.56 305.02,-97.44 305.02,-97.44 305.02,-103.44 299.02,-109.44 293.02,-109.44"/>
<text xml:space="preserve" text-anchor="middle" x="253.51" y="-95.62" font-family="Helvetica,sans-Serif" font-size="10.00">task_5</text>
<text xml:space="preserve" text-anchor="middle" x="253.51" y="-82.88" font-family="Helvetica,sans-Serif" font-size="10.00">math</text>
<text xml:space="preserve" text-anchor="middle" x="253.51" y="-70.12" font-family="Helvetica,sans-Serif" font-size="10.00">native_task_id=all</text>
</g>
<!-- task_4&#45;&gt;task_5 -->
<g id="edge5" class="edge">
<title>task_4&#45;&gt;task_5</title>
<path fill="none" stroke="#555555" d="M155.5,-32.59C168.9,-39.97 185.63,-49.18 201.4,-57.86"/>
<polygon fill="#555555" stroke="#555555" points="199.93,-59.85 207.24,-61.08 202.29,-55.55 199.93,-59.85"/>
</g>
<!-- task_2&#45;&gt;task_5 -->
<g id="edge3" class="edge">
<title>task_2&#45;&gt;task_5</title>
<path fill="none" stroke="#555555" d="M155.5,-139.41C168.9,-132.03 185.63,-122.82 201.4,-114.14"/>
<polygon fill="#555555" stroke="#555555" points="202.29,-116.45 207.24,-110.92 199.93,-112.15 202.29,-116.45"/>
</g>
<!-- task_3&#45;&gt;task_5 -->
<g id="edge4" class="edge">
<title>task_3&#45;&gt;task_5</title>
<path fill="none" stroke="#555555" d="M155.5,-86C166.53,-86 179.83,-86 192.98,-86"/>
<polygon fill="#555555" stroke="#555555" points="192.63,-88.45 199.63,-86 192.63,-83.55 192.63,-88.45"/>
</g>
</g>
</svg>
