<?xml version="1.0" encoding="UTF-8" standalone="no"?>
<!DOCTYPE svg PUBLIC "-//W3C//DTD SVG 1.1//EN"
 "http://www.w3.org/Graphics/SVG/1.1/DTD/svg11.dtd">
<!-- Generated by graphviz version 14.1.2 (0)
 -->
<!-- Title: custom_dag Pages: 1 -->
<svg width="328pt" height="143pt"
 viewBox="0.00 0.00 328.00 143.00" xmlns="http://www.w3.org/2000/svg" xmlns:xlink="http://www.w3.org/1999/xlink">
<g id="graph0" class="graph" transform="scale(1 1) rotate(0) translate(14.4 128.84)">
<title>custom_dag</title>
<polygon fill="white" stroke="none" points="-14.4,14.4 -14.4,-128.84 313.42,-128.84 313.42,14.4 -14.4,14.4"/>
<!-- task_1 -->
<g id="node1" class="node">
<title>task_1</title>
<path fill="#e8f1ff" stroke="#5279b8" stroke-width="1.2" d="M164.51,-114.44C164.51,-114.44 134.51,-114.44 134.51,-114.44 128.51,-114.44 122.51,-108.44 122.51,-102.44 122.51,-102.44 122.51,-90.44 122.51,-90.44 122.51,-84.44 128.51,-78.44 134.51,-78.44 134.51,-78.44 164.51,-78.44 164.51,-78.44 170.51,-78.44 176.51,-84.44 176.51,-90.44 176.51,-90.44 176.51,-102.44 176.51,-102.44 176.51,-108.44 170.51,-114.44 164.51,-114.44"/>
<text xml:space="preserve" text-anchor="middle" x="149.51" y="-99.69" font-family="Helvetica,sans-Serif" font-size="10.00">task_1</text>
<text xml:space="preserve" text-anchor="middle" x="149.51" y="-86.94" font-family="Helvetica,sans-Serif" font-size="10.00">python</text>
</g>
<!-- task_4 -->
<g id="node4" class="node">
<title>task_4</title>
<path fill="#e8f1ff" stroke="#5279b8" stroke-width="1.2" d="M287.02,-77.44C287.02,-77.44 257.02,-77.44 257.02,-77.44 251.02,-77.44 245.02,-71.44 245.02,-65.44 245.02,-65.44 245.02,-53.45 245.02,-53.45 245.02,-47.45 251.02,-41.45 257.02,-41.45 257.02,-41.45 287.02,-41.45 287.02,-41.45 293.02,-41.45 299.02,-47.45 299.02,-53.45 299.02,-53.45 299.02,-65.44 299.02,-65.44 299.02,-71.44 293.02,-77.44 287.02,-77.44"/>
<text xml:space="preserve" text-anchor="middle" x="272.02" y="-62.69" font-family="Helvetica,sans-Serif" font-size="10.00">task_4</text>
<text xml:space="preserve" text-anchor="middle" x="272.02" y="-49.94" font-family="Helvetica,sans-Serif" font-size="10.00">python</text>
</g>
<!-- task_1&#45;&gt;task_4 -->
<g id="edge1" class="edge">
<title>task_1&#45;&gt;task_4</title>
<path fill="none" stroke="#555555" d="M176.96,-88.33C194.46,-82.95 217.59,-75.85 236.53,-70.03"/>
<polygon fill="#555555" stroke="#555555" points="237.22,-72.39 243.19,-67.99 235.78,-67.7 237.22,-72.39"/>
</g>
<!-- task_2 -->
<g id="node2" class="node">
<title>task_2</title>
<path fill="#e8f1ff" stroke="#5279b8" stroke-width="1.2" d="M42,-41.45C42,-41.45 12,-41.45 12,-41.45 6,-41.45 0,-35.45 0,-29.45 0,-29.45 0,-17.44 0,-17.44 0,-11.45 6,-5.45 12,-5.45 12,-5.45 42,-5.45 42,-5.45 48,-5.45 54,-11.45 54,-17.45 54,-17.45 54,-29.45 54,-29.45 54,-35.45 48,-41.45 42,-41.45"/>
<text xml:space="preserve" text-anchor="middle" x="27" y="-26.7" font-family="Helvetica,sans-Serif" font-size="10.00">task_2</text>
<text xml:space="preserve" text-anchor="middle" x="27" y="-13.95" font-family="Helvetica,sans-Serif" font-size="10.00">python</text>
</g>
<!-- task_3 -->
<g id="node3" class="node">
<title>task_3</title>
<path fill="#fff2b8" stroke="#c48a00" stroke-width="2" d="M186.02,-46.89C186.02,-46.89 113,-46.89 113,-46.89 107,-46.89 101,-40.89 101,-34.89 101,-34.89 101,-12 101,-12 101,-6 107,0 113,0 113,0 186.02,0 186.02,0 192.02,0 198.02,-6 198.02,-12 198.02,-12 198.02,-34.89 198.02,-34.89 198.02,-40.89 192.02,-46.89 186.02,-46.89"/>
<text xml:space="preserve" text-anchor="middle" x="149.51" y="-33.07" font-family="Helvetica,sans-Serif" font-size="10.00">task_3</text>
<text xml:space="preserve" text-anchor="middle" x="149.51" y="-20.32" font-family="Helvetica,sans-Serif" font-size="10.00">python</text>
<text xml:space="preserve" text-anchor="middle" x="149.51" y="-7.57" font-family="Helvetica,sans-Serif" font-size="10.00">native_task_id=1</text>
</g>
<!-- task_2&#45;&gt;task_3 -->
<g id="edge2" class="edge">
<title>task_2&#45;&gt;task_3</title>
<path fill="none" stroke="#555555" d="M54.45,-23.45C65.47,-23.45 78.73,-23.45 91.77,-23.45"/>
<polygon fill="#555555" stroke="#555555" points="91.77,-25.9 98.77,-23.45 91.77,-21 91.77,-25.9"/>
</g>
<!-- task_3&#45;&gt;task_4 -->
<g id="edge3" class="edge">
<title>task_3&#45;&gt;task_4</title>
<path fill="none" stroke="#555555" d="M198.83,-37.88C211.49,-41.66 224.89,-45.66 236.66,-49.18"/>
<polygon fill="#555555" stroke="#555555" points="235.66,-51.44 243.07,-51.09 237.06,-46.74 235.66,-51.44"/>
</g>
</g>
</svg>
