<?xml version="1.0" encoding="UTF-8" standalone="no"?>
<!DOCTYPE svg PUBLIC "-//W3C//DTD SVG 1.1//EN"
 "http://www.w3.org/Graphics/SVG/1.1/DTD/svg11.dtd">
<!-- Generated by graphviz version 2.43.0 (0)
 -->
<!-- Title: custom_dag Pages: 1 -->
<svg width="234pt" height="133pt"
 viewBox="0.00 0.00 233.80 132.80" xmlns="http://www.w3.org/2000/svg" xmlns:xlink="http://www.w3.org/1999/xlink">
<g id="graph0" class="graph" transform="scale(1 1) rotate(0) translate(14.4 118.4)">
<title>custom_dag</title>
<polygon fill="white" stroke="transparent" points="-14.4,14.4 -14.4,-118.4 219.4,-118.4 219.4,14.4 -14.4,14.4"/>
<!-- task_1 -->
<g id="node1" class="node">
<title>task_1</title>
<path fill="#e8f1ff" stroke="#5279b8" stroke-width="1.2" d="M42,-104C42,-104 12,-104 12,-104 6,-104 0,-98 0,-92 0,-92 0,-80 0,-80 0,-74 6,-68 12,-68 12,-68 42,-68 42,-68 48,-68 54,-74 54,-80 54,-80 54,-92 54,-92 54,-98 48,-104 42,-104"/>
<text text-anchor="middle" x="27" y="-89" font-family="Helvetica,sans-Serif" font-size="10.00">task_1</text>
<text text-anchor="middle" x="27" y="-78" font-family="Helvetica,sans-Serif" font-size="10.00">math</text>
</g>
<!-- task_3 -->
<g id="node3" class="node">
<title>task_3</title>
<path fill="#fff2b8" stroke="#c48a00" stroke-width="2" d="M193,-72.5C193,-72.5 113,-72.5 113,-72.5 107,-72.5 101,-66.5 101,-60.5 101,-60.5 101,-43.5 101,-43.5 101,-37.5 107,-31.5 113,-31.5 113,-31.5 193,-31.5 193,-31.5 199,-31.5 205,-37.5 205,-43.5 205,-43.5 205,-60.5 205,-60.5 205,-66.5 199,-72.5 193,-72.5"/>
<text text-anchor="middle" x="153" y="-60.5" font-family="Helvetica,sans-Serif" font-size="10.00">task_3</text>
<text text-anchor="middle" x="153" y="-49.5" font-family="Helvetica,sans-Serif" font-size="10.00">math</text>
<text text-anchor="middle" x="153" y="-38.5" font-family="Helvetica,sans-Serif" font-size="10.00">native_task_id=all</text>
</g>
<!-- task_1&#45;&gt;task_3 -->
<g id="edge1" class="edge">
<title>task_1&#45;&gt;task_3</title>
<path fill="none" stroke="#555555" d="M54.3,-78.79C65.97,-75.59 80.19,-71.69 94.14,-67.86"/>
<polygon fill="#555555" stroke="#555555" points="94.85,-70.21 100.95,-66 93.56,-65.48 94.85,-70.21"/>
</g>
<!-- task_2 -->
<g id="node2" class="node">
<title>task_2</title>
<path fill="#e8f1ff" stroke="#5279b8" stroke-width="1.2" d="M42,-36C42,-36 12,-36 12,-36 6,-36 0,-30 0,-24 0,-24 0,-12 0,-12 0,-6 6,0 12,0 12,0 42,0 42,0 48,0 54,-6 54,-12 54,-12 54,-24 54,-24 54,-30 48,-36 42,-36"/>
<text text-anchor="middle" x="27" y="-21" font-family="Helvetica,sans-Serif" font-size="10.00">task_2</text>
<text text-anchor="middle" x="27" y="-10" font-family="Helvetica,sans-Serif" font-size="10.00">math</text>
</g>
<!-- task_2&#45;&gt;task_3 -->
<g id="edge2" class="edge">
<title>task_2&#45;&gt;task_3</title>
<path fill="none" stroke="#555555" d="M54.3,-25.21C65.97,-28.41 80.19,-32.31 94.14,-36.14"/>
<polygon fill="#555555" stroke="#555555" points="93.56,-38.52 100.95,-38 94.85,-33.79 93.56,-38.52"/>
</g>
</g>
</svg>
