<?xml version="1.0" encoding="UTF-8" standalone="no"?>
<!DOCTYPE svg PUBLIC "-//W3C//DTD SVG 1.1//EN"
 "http://www.w3.org/Graphics/SVG/1.1/DTD/svg11.dtd">
<!-- Generated by graphviz version 2.43.0 (0)
 -->
<!-- Title: custom_dag Pages: 1 -->
<svg width="436pt" height="70pt"
 viewBox="0.00 0.00 435.80 69.80" xmlns="http://www.w3.org/2000/svg" xmlns:xlink="http://www.w3.org/1999/xlink">
<g id="graph0" class="graph" transform="scale(1 1) rotate(0) translate(14.4 55.4)">
<title>custom_dag</title>
<polygon fill="white" stroke="transparent" points="-14.4,14.4 -14.4,-55.4 421.4,-55.4 421.4,14.4 -14.4,14.4"/>
<!-- task_1 -->
<g id="node1" class="node">
<title>task_1</title>
<path fill="#e8f1ff" stroke="#5279b8" stroke-width="1.2" d="M42,-38.5C42,-38.5 12,-38.5 12,-38.5 6,-38.5 0,-32.5 0,-26.5 0,-26.5 0,-14.5 0,-14.5 0,-8.5 6,-2.5 12,-2.5 12,-2.5 42,-2.5 42,-2.5 48,-2.5 54,-8.5 54,-14.5 54,-14.5 54,-26.5 54,-26.5 54,-32.5 48,-38.5 42,-38.5"/>
<text text-anchor="middle" x="27" y="-23.5" font-family="Helvetica,sans-Serif" font-size="10.00">task_1</text>
<text text-anchor="middle" x="27" y="-12.5" font-family="Helvetica,sans-Serif" font-size="10.00">python</text>
</g>
<!-- task_2 -->
<g id="node2" class="node">
<title>task_2</title>
<path fill="#e8f1ff" stroke="#5279b8" stroke-width="1.2" d="M143,-38.5C143,-38.5 113,-38.5 113,-38.5 107,-38.5 101,-32.5 101,-26.5 101,-26.5 101,-14.5 101,-14.5 101,-8.5 107,-2.5 113,-2.5 113,-2.5 143,-2.5 143,-2.5 149,-2.5 155,-8.5 155,-14.5 155,-14.5 155,-26.5 155,-26.5 155,-32.5 149,-38.5 143,-38.5"/>
<text text-anchor="middle" x="128" y="-23.5" font-family="Helvetica,sans-Serif" font-size="10.00">task_2</text>
<text text-anchor="middle" x="128" y="-12.5" font-family="Helvetica,sans-Serif" font-size="10.00">python</text>
</g>
<!-- task_1&#45;&gt;task_2 -->
<g id="edge1" class="edge">
<title>task_1&#45;&gt;task_2</title>
<path fill="none" stroke="#555555" d="M54.01,-20.5C66.19,-20.5 80.84,-20.5 93.81,-20.5"/>
<polygon fill="#555555" stroke="#555555" points="93.82,-22.95 100.82,-20.5 93.82,-18.05 93.82,-22.95"/>
</g>
<!-- task_3 -->
<g id="node3" class="node">
<title>task_3</title>
<path fill="#e8f1ff" stroke="#5279b8" stroke-width="1.2" d="M244,-38.5C244,-38.5 214,-38.5 214,-38.5 208,-38.5 202,-32.5 202,-26.5 202,-26.5 202,-14.5 202,-14.5 202,-8.5 208,-2.5 214,-2.5 214,-2.5 244,-2.5 244,-2.5 250,-2.5 256,-8.5 256,-14.5 256,-14.5 256,-26.5 256,-26.5 256,-32.5 250,-38.5 244,-38.5"/>
<text text-anchor="middle" x="229" y="-23.5" font-family="Helvetica,sans-Serif" font-size="10.00">task_3</text>
<text text-anchor="middle" x="229" y="-12.5" font-family="Helvetica,sans-Serif" font-size="10.00">python</text>
</g>
<!-- task_2&#45;&gt;task_3 -->
<g id="edge2" class="edge">
<title>task_2&#45;&gt;task_3</title>
<path fill="none" stroke="#555555" d="M155.01,-20.5C167.19,-20.5 181.84,-20.5 194.81,-20.5"/>
<polygon fill="#555555" stroke="#555555" points="194.82,-22.95 201.82,-20.5 194.82,-18.05 194.82,-22.95"/>
</g>
<!-- task_4 -->
<g id="node4" class="node">
<title>task_4</title>
<path fill="#fff2b8" stroke="#c48a00" stroke-width="2" d="M395,-41C395,-41 315,-41 315,-41 309,-41 303,-35 303,-29 303,-29 303,-12 303,-12 303,-6 309,0 315,0 315,0 395,0 395,0 401,0 407,-6 407,-12 407,-12 407,-29 407,-29 407,-35 401,-41 395,-41"/>
<text text-anchor="middle" x="355" y="-29" font-family="Helvetica,sans-Serif" font-size="10.00">task_4</text>
<text text-anchor="middle" x="355" y="-18" font-family="Helvetica,sans-Serif" font-size="10.00">python</text>
<text text-anchor="middle" x="355" y="-7" font-family="Helvetica,sans-Serif" font-size="10.00">native_task_id=93</text>
</g>
<!-- task_3&#45;&gt;task_4 -->
<g id="edge3" class="edge">
<title>task_3&#45;&gt;task_4</title>
<path fill="none" stroke="#555555" d="M256.3,-20.5C267.86,-20.5 281.94,-20.5 295.76,-20.5"/>
<polygon fill="#555555" stroke="#555555" points="295.95,-22.95 302.95,-20.5 295.95,-18.05 295.95,-22.95"/>
</g>
</g>
</svg>
